<?xml version="1.0" standalone="no"?>
<!DOCTYPE svg PUBLIC "-//W3C//DTD SVG 20010904//EN"
 "http://www.w3.org/TR/2001/REC-SVG-20010904/DTD/svg10.dtd">
<svg version="1.0" xmlns="http://www.w3.org/2000/svg"
 width="1127.000000pt" height="1127.000000pt" viewBox="0 0 1127.000000 1127.000000"
 preserveAspectRatio="xMidYMid meet">
<metadata>
Created by potrace 1.11, written by Peter Selinger 2001-2013
</metadata>
<g transform="translate(0.000000,1127.000000) scale(0.100000,-0.100000)"
fill="#000000" stroke="none">
<path d="M5320 11259 c-283 -16 -554 -52 -837 -110 l-152 -32 138 -271 c76
-149 263 -518 416 -821 153 -302 334 -661 402 -797 l125 -246 -140 -279 c-191
-379 -196 -388 -206 -386 -11 2 -94 164 -608 1183 -215 426 -423 838 -463 915
-40 77 -116 226 -168 332 l-96 191 -89 -33 c-336 -127 -673 -295 -1015 -507
l-127 -79 186 -367 c103 -202 215 -421 249 -487 34 -66 230 -453 435 -860 205
-407 412 -816 460 -910 48 -93 162 -319 254 -502 l165 -332 153 73 c129 62
292 123 482 179 47 14 -13 -96 527 975 226 449 471 934 544 1077 73 143 237
467 365 720 128 253 320 632 427 843 107 211 193 385 191 387 -1 1 -68 16
-148 33 -482 101 -985 138 -1470 111z"/>
<path d="M7469 10788 c-39 -79 -160 -318 -269 -533 -109 -214 -316 -624 -460
-910 -144 -286 -329 -650 -410 -810 -81 -159 -265 -522 -408 -806 l-262 -516
128 -7 c395 -22 747 -113 1083 -281 l129 -64 166 332 c92 183 222 440 289 572
67 132 256 506 420 830 316 627 537 1062 747 1474 109 212 128 255 117 267
-31 30 -392 240 -557 323 -225 113 -593 271 -633 271 -5 0 -41 -64 -80 -142z"/>
<path d="M8985 9417 c-147 -293 -312 -617 -365 -722 -193 -377 -394 -773 -750
-1479 l-363 -720 110 -105 c251 -241 418 -468 568 -776 204 -418 298 -878 281
-1374 -21 -609 -225 -1148 -622 -1646 -117 -147 -364 -392 -494 -491 -333
-253 -685 -417 -1080 -504 -239 -52 -369 -65 -670 -65 -253 0 -300 3 -420 23
-333 57 -532 122 -814 265 -301 153 -560 347 -814 612 -404 420 -643 916 -734
1522 -30 200 -33 654 -5 833 97 617 362 1129 835 1611 l94 96 -201 399 c-110
219 -262 518 -337 664 -74 146 -328 648 -564 1115 -619 1226 -634 1255 -644
1255 -4 0 -65 -51 -135 -114 -834 -754 -1424 -1737 -1691 -2820 -117 -476
-164 -864 -164 -1361 0 -497 47 -885 164 -1361 185 -750 536 -1476 1005 -2079
292 -375 645 -728 1020 -1020 603 -469 1329 -820 2079 -1005 476 -117 864
-164 1361 -164 497 0 885 47 1361 164 848 209 1609 601 2304 1187 148 125 488
465 613 613 586 695 978 1456 1187 2304 117 476 164 864 164 1361 0 497 -47
885 -164 1361 -237 963 -725 1840 -1424 2561 -114 118 -341 330 -407 380 -13
11 -51 -58 -284 -520z"/>
<path d="M5565 6689 c-347 -17 -657 -96 -990 -255 -335 -159 -650 -437 -868
-766 -386 -582 -499 -1184 -346 -1838 162 -693 554 -1204 1179 -1540 245 -132
460 -205 750 -256 147 -26 499 -27 655 -1 776 127 1347 511 1715 1151 146 254
230 481 286 773 24 124 27 162 27 368 1 196 -3 249 -22 360 -128 736 -483
1281 -1071 1645 -310 192 -628 307 -955 344 -197 23 -204 23 -360 15z m383
-2301 l2 -1258 -320 0 -320 0 0 770 0 770 -272 2 -273 3 -3 223 -2 222 72 0
c96 0 199 23 275 60 147 72 278 246 298 395 4 28 8 56 10 63 4 10 62 12 267
10 l263 -3 3 -1257z"/>
</g>
</svg>
